<?xml version="1.0" encoding="utf-8"?>
<!-- Designed by Vexels.com - 2020 All Rights Reserved - https://vexels.com/terms-and-conditions/  -->
<svg version="1.1" id="Capa_1" xmlns="http://www.w3.org/2000/svg" xmlns:xlink="http://www.w3.org/1999/xlink" x="0px" y="0px"
	 viewBox="0 0 1200 1200" enable-background="new 0 0 1200 1200" xml:space="preserve">
<g>
	<path fill="#280412" d="M1147.043,713.518c4.233,3.378,3.643,10.908,0,14.408c-13.899,13.248-36.731,15.425-54.7,19.434
		c-25.091,5.596-49.837,12.047-74.562,19.149c-90.455,25.966-180.808,50.406-269.31,82.641c-10.704,3.907-21.53,7.652-32.784,9.646
		c-7.896,1.404-15.954,1.73-23.769,3.541c-11.457,2.666-16.972,11.538-25.519,19.068c-12.597,11.111-24.664,18.579-41.595,20.696
		c-20.187,2.544-41.371-1.445-60.459-8.384c-0.427,0.102-0.895,0.183-1.384,0.224c-19.577,1.14-39.173,2.096-58.77,2.89
		c-69.047,2.768-138.338,1.079-207.426,1.079c-79.486,0-158.952,0-238.439,0c-4.396,0-6.532-3.459-6.471-6.858
		c-0.224-0.326-0.448-0.651-0.61-0.977c-1.323-2.523-1.14-6.207-1.221-9.015c-0.102-3.419,0.142-6.838,0.265-10.236
		c0.102-3.052-0.448-6.939,1.119-9.707c2.747-4.884,7.55-6.329,12.78-6.247c4.843,0.081,9.625,0.468,14.408,0.936
		c1.77-8.974,3.541-17.949,5.352-26.902c0.733-3.561,4.619-6.166,8.079-6.146c3.215,0,6.41,0.02,9.625,0.041
		c2.89-20.96,11.091-40.679,18.091-60.5c2.096-5.922,4.151-21.876,11.844-22.609c37.891-3.622,76.434-4.396,114.468-5.087
		c34.554-0.611,133.515,4.212,180.971,21.021c10.155,3.582,12.047-4.314,6.471-6.817c-25.58-11.416-51.689-21.693-78.367-30.24
		c-53.194-17.012-109.014-26.19-164.935-23.992c-5.535,0.224-8.547-6.085-6.085-10.602c6.003-11.05,11.152-21.917,21.713-29.385
		c6.146-4.334,12.556-7.916,20.106-7.733c9.768,0.224,19.678,1.567,29.344,2.869c64.305,8.547,125.762,31.99,183.8,60.5
		c-10.643-15.181-16.076-32.946-10.012-52.604c5.087-16.483,16.097-26.557,33.292-27.92c10.521-0.834,21.347,0.102,31.888,1.608
		c1.913-0.712,3.968-1.302,6.166-1.709c17.399-3.256,36.365,3.846,51.912,13.248c4.273-6.329,9.544-12.413,15.283-16.646
		c11.599-8.527,28.307-9.015,42.124-10.175c13.96-1.201,27.635,0.224,41.453,2.259c10.643,1.547,22.731,3.805,30.504,11.945
		c5.332,5.596,7.774,12.658,8.425,20.167c15.527-17.888,33.17-34.534,50.753-49.837c12.088-10.501,24.237-21.001,36.609-31.156
		c20.981-17.216,40.211-23.036,66.808-25.702c14.876-1.486,29.935-1.852,44.892-1.73c15.303,0.102,30.626,0.916,45.828,2.869
		c11.498,1.465,25.824,2.3,36.304,7.428c4.314,2.096,15.852,24.908,16.097,26.129c0.773,1.608,0.753,3.521-0.61,5.332
		c-6.207,8.14-15.018,13.818-23.891,18.925c17.46,2.3,35.307,7.448,50.773,12.719c11.966,4.09,22.832,9.666,33.414,16.605
		c6.695,4.375,13.858,9.931,15.832,18.111c0.875,3.704-0.59,7.224-3.48,9.259c6.492,3.663,16.219,25.865,16.219,25.865l29.426,4.172
		C1105.081,689.383,1134.446,703.486,1147.043,713.518z M1112.407,721.841c2.544-0.631,5.25-1.241,7.896-2.015
		c-7.163-4.009-14.774-7.448-21.835-10.969c-2.157-1.079-8.506-7.367-10.5-3.541c1.119,1.831,2.116,3.704,2.991,5.698
		c2.503,5.759-42.145,17.989-59.238,22.731c-17.073,4.742-34.167,9.32-51.159,14.408c-35.592,10.663-71.245,21.245-106.776,32.092
		c-36.426,11.111-72.873,22.08-109.482,32.539c-16.239,4.64-33.231,7.57-49.125,13.268c-8.282,2.971-45.278,9.259-45.278,9.259
		s-27.411,36.202-48.249,42.043c-10.419,2.93-21.632,3.907-32.377,2.218c-1.18-0.203-2.361-0.427-3.541-0.672
		c-4.212-0.916-15.547-5.881-15.547-5.881s-500.707-4.803-505.998-4.619c-0.081,5.372-0.387,10.724-0.651,16.076
		c43.386,0,86.792,0,130.178,0c123.015,0,372.504-3.541,373.562-2.646c6.939,0.529,14.062,1.648,21.245,2.707
		c15.995,2.34,32.234,4.233,47.11-2.035c12.922-5.454,22.69-17.562,32.377-27.248c9.198-9.178,21.774-11.03,34.228-12.739
		c19.922-2.747,38.136-10.378,56.837-17.379c42.49-15.893,89.478-25.417,132.945-38.339c43.772-13.044,171.203-53.785,193.12-58.648
		C1094.235,726.135,1103.331,724.019,1112.407,721.841z M1070.1,707.861c-1.18-1.201-10.5-15.12-10.5-15.425
		c-13.411,4.335-26.516,9.3-40.171,12.963c-17.949,4.823-38.42,11.925-57.081,11.823c-5.026-0.02-6.166-6.288-2.422-8.913
		c14.408-10.134,34.819-13.573,51.526-18.335c14.754-4.192,29.507-8.506,43.773-14.163c-4.314-3.398-8.812-6.614-13.085-10.053
		c-27.778,10.195-55.413,22.934-84.208,28.449c-5.922,1.14-9.585-6.573-4.172-9.87c14.774-9.015,31.685-16.015,47.781-22.324
		c12.963-5.067,25.987-9.829,39.194-14.184c-3.236-2.279-7.122-4.131-9.727-5.393c-4.64-2.279-9.748-3.114-14.57-5.108
		c-5.352-2.198-10.785-4.151-16.239-6.023c-19.312-6.553-38.644-11.762-58.282-16.972
		c-32.092,17.358-143.019,84.248-168.578,101.607c-14.408,9.788-79.324,54.639-96.417,63.532c-6.776,3.521-9.585,2.849-3.724-5.311
		c5.84-8.16,184.023-134.329,232.192-158.281c15.507-7.713,31.074-15.283,46.398-23.362c6.593-3.48,13.736-7.102,19.841-11.721
		c-2.727-3.398-4.986-7.468-6.858-11.579c-33.394,13.288-65.445,30.24-97.008,47.395c-63.451,34.432-251.28,186.343-264.568,198.716
		c1.282,2.747,2.401,5.617,3.297,8.649c13.879-5.678,28.693-7.611,43.732-7.916c21.225-21.123,47.578-38.604,72.14-55.189
		c27.126-18.315,55.27-35.164,84.146-50.549c28.978-15.446,58.791-29.182,89.132-41.656c29.894-12.271,60.968-25.478,92.938-30.932
		c6.247-1.079,11.355,7.997,4.66,11.07c-29.121,13.39-60.276,22.263-90.028,34.228c-30.24,12.149-59.869,25.824-88.827,40.761
		c-28.571,14.733-56.41,30.911-83.292,48.555c-20.879,13.736-40.415,29.467-60.683,44.057c4.782,0.203,9.544,0.488,14.265,0.753
		c15.303-2.605,36.019-5.332,50.569-10.338c41.188-14.184,81.847-24.888,123.808-36.508c42.572-11.803,80.361-27.676,122.933-39.519
		C1011.187,722.655,1041.081,715.96,1070.1,707.861z M939.393,562.014c-3.785-0.651-7.591-1.18-11.416-1.628
		c-13.879-1.648-27.9-2.361-41.88-2.544c-14.428-0.183-48.331,1.73-51.017,2.055l-20.126,1.587c0,0-15.181,10.765-22.466,15.812
		c-13.472,9.32-25.763,20.899-38.4,31.339c-21.306,17.562-48.005,41.412-60.866,57.855c-24.196,71.265-54.314,75.416-55.962,95.481
		c12.129-1.587,22.955-17.135,31.766-24.216c37.525-30.138,94.22-75.844,112.575-87.402c31.135-19.638,62.942-38.197,95.441-55.494
		c14.896-7.936,29.914-15.629,44.79-23.585C927.529,568.2,933.39,564.964,939.393,562.014z M672.81,676.542
		c0.427-9.198,1.567-16.483-4.477-24.44c-9.239-12.169-26.027-21.55-40.903-14.754c6.715,5.006,11.905,12.8,14.102,20.167
		c3.582,11.966,1.486,25.071-2.3,36.731c-7.326,22.548-20.106,42.633-34.167,61.497c-0.305,10.358-1.445,20.716-3.032,31.054
		c8.567-19.963,26.027-37.057,39.519-52.808c14.306-16.728,22.527-33.72,30.036-54.008
		C671.996,678.883,672.403,677.723,672.81,676.542z M617.906,863.72c15.914-4.721,28.754-14.489,35.49-28.734
		c-5.413,0-10.806,0.142-16.198,0.488c-21.998,1.465-38.766,13.858-55.168,27.411c-0.183,0.163-0.387,0.326-0.57,0.468
		c2.849,1.18,5.82,2.015,8.872,2.544C599.51,867.465,609.034,866.345,617.906,863.72z M622.322,699.009
		c3.867-9.971,7.509-21.388,6.166-32.214c-1.282-10.338-7.306-14.57-14.265-19.76c-5.006,4.843-9.524,10.358-13.553,15.466
		c-3.704,4.701-9.809,11.721-12.088,18.559c6.715,12.861,11.152,27.106,13.879,40.883c0.814,4.151,1.404,8.303,1.831,12.454
		C610.967,722.92,617.52,711.381,622.322,699.009z M591.94,652.062c6.532-8.079,14.286-17.236,23.443-23.301
		c-11.07,0.163-22.283,1.526-32.193,4.558c-8.16,2.483-14.815,9.544-19.78,16.992c6.512,4.904,12.108,10.785,16.89,17.338
		C583.902,661.789,588.44,656.376,591.94,652.062z M586.547,819.398c3.276,2.442,6.41,5.433,9.829,7.468
		c-0.611-11.844-17.053-24.664-25.966-30.891c-11.721-8.16-24.99-13.736-37.505-20.513c-19.902-10.785-39.764-21.652-59.808-32.193
		c-40.008-21.042-80.809-40.883-123.503-55.881c-30.057-10.541-60.988-18.824-92.531-23.341c-8.506-1.221-17.053-2.116-25.6-2.747
		c-7.468-0.549-12.556,0.956-18.518,5.454c-4.762,3.582-8.038,8.364-10.887,13.431c57.02-0.529,112.84,11.253,166.624,30.158
		c28.469,10.012,56.532,21.734,83.658,35.002c13.085,6.39,25.844,13.329,38.482,20.574c3.521,2.015,45.869,23.158,62.983,32.723
		C565.078,804.93,576.169,811.686,586.547,819.398z M587.199,762.907c0.651-15.445-1.526-30.769-5.433-45.706
		c-7.306-27.818-21.367-50.305-47.558-63.268c-2.706-1.343-5.739-2.706-8.893-3.887c10.358,12.841,17.46,28.001,22.975,44.159
		c8.811,25.763,13.899,54.171,13.756,81.521c7.957,4.619,15.71,9.727,22.548,15.69C585.164,781.955,586.812,772.512,587.199,762.907
		z M572.079,846.667c4.05-3.337,8.16-6.654,12.393-9.809c-16.504-12.902-34.798-23.545-53.398-33.068
		c-62.616-31.99-132.681-48.392-202.684-52.503c-64.224-3.785-128.143,1.811-192.285,1.323c-2.747,12.82-6.756,25.559-10.277,38.339
		c25.661-0.997,51.221-3.134,76.882-4.538c14.509-0.773,29.08-1.302,43.61-0.285c11.742,0.814,26.17,1.282,35.673,8.872
		c3.378,2.707,1.18,8.12-2.422,9.178c-12.251,3.643-28.062-0.509-40.801-0.834c-13.94-0.346-27.839-0.102-41.778,0.509
		c-24.847,1.119-49.796,2.951-74.562,0.366c-1.445,6.186-2.625,12.393-3.378,18.64c24.705,0.122,49.389,0.224,74.073,0.326
		c33.516,0.142,67.704-1.14,101.098,1.608c8.14,0.672,8.12,11.986,0,12.658c-33.374,2.747-67.582,1.465-101.098,1.608
		c-31.4,0.122-62.82,0.265-94.22,0.407c-0.916,4.64-1.811,9.28-2.727,13.919c26.597-0.183,272.891,0.427,326.757,1.201
		c34.452,0.509,68.905,2.015,103.357,2.869c10.073,0.244,22.873,2.727,32.804,0.794c0.061-0.285,0.285-0.712,0.61-1.16
		c-23.199-9.422-49.409-9.137-74.216-10.541c-14.143-0.794-28.327-1.262-42.45-2.462c-11.599-0.997-24.318-1.831-35.063-6.614
		c-3.032-1.343-2.3-6.715,0.936-7.245c13.004-2.076,26.862-0.977,39.967-0.59c15.242,0.427,30.525,0.855,45.746,1.648
		c25.743,1.343,54.456,1.73,76.515,16.117C571.448,847.155,571.773,846.911,572.079,846.667z M546.133,767.018
		c-2.259-41.534-9.849-89.56-39.072-120.247c-1.994,0.142-3.948,0.509-5.82,1.18c-12.251,4.294-13.797,19.332-13.105,30.443
		c0.875,13.736,5.372,27.554,10.806,40.109c5.108,11.823,12.515,21.815,18.681,32.926c0.041,0.061,0.041,0.122,0.081,0.183
		C527.167,756.762,536.629,761.91,546.133,767.018z M481.013,731.792c1.791,0.956,3.582,1.913,5.372,2.89
		c-1.079-2.401-2.116-4.782-3.093-7.021c-6.186-14.102-10.969-28.815-12.739-44.139c-1.587-13.777,0.549-29.304,8.364-40.293
		c-2.768-0.163-5.535-0.285-8.303-0.326c-5.596-0.041-12.23-0.326-17.338,2.3c-6.695,3.439-10.256,11.599-11.986,18.518
		C433.883,693.27,458.811,716.611,481.013,731.792z"/>
	<path fill="#08736D" d="M1120.303,719.827c-2.646,0.773-5.352,1.384-7.896,2.015c-9.076,2.177-18.172,4.294-27.269,6.308
		c-21.917,4.864-149.347,45.604-193.12,58.648c-43.467,12.922-90.455,22.446-132.945,38.339c-18.701,7-36.915,14.631-56.837,17.379
		c-12.454,1.709-25.03,3.561-34.228,12.739c-9.687,9.686-19.454,21.795-32.377,27.248c-14.876,6.268-31.115,4.375-47.11,2.035
		l0.753-4.965c10.745,1.689,21.957,0.712,32.377-2.218c20.838-5.84,48.249-42.043,48.249-42.043s36.996-6.288,45.278-9.259
		c15.893-5.698,32.885-8.628,49.125-13.268c36.609-10.46,73.056-21.428,109.482-32.539c35.531-10.846,71.184-21.428,106.776-32.092
		c16.992-5.087,34.086-9.666,51.159-14.408c17.094-4.742,61.741-16.972,59.238-22.731c-0.875-1.994-1.872-3.867-2.991-5.698
		c1.994-3.826,8.343,2.462,10.5,3.541C1105.529,712.379,1113.14,715.818,1120.303,719.827z"/>
	<path fill="#280412" d="M918.392,716.001c5.311,0.244,6.939,6.838,2.645,9.748c-13.98,9.402-34.127,13.004-50.101,17.847
		c-17.542,5.311-35.063,10.765-52.38,16.728c-18.071,6.227-36.223,12.21-54.11,18.905c-16.015,6.003-31.034,15.975-47.985,19.17
		c-1.465,0.285-3.134,0.448-4.314-0.468c-5.555-4.416,17.114-15.71,19.556-17.216c8.079-4.986,16.483-9.442,25.03-13.553
		c17.073-8.181,34.819-14.896,52.625-21.306c18.824-6.776,37.891-12.861,57.102-18.478
		C882.434,722.696,901.563,715.248,918.392,716.001z"/>
	<path fill="#280412" d="M877.326,575.404c5.108,1.547,5.067,8.771,0,10.338c-13.004,4.009-27.574,1.587-35.795,14.408
		c-2.584,4.029-4.925,8.445-9.015,11.172c-3.948,2.646-9.035,3.378-13.37,5.128c-28.775,11.498-53.276,33.394-79.934,49.002
		c-5.535,3.236-10.48-5.311-5.006-8.588c15.12-9.056,29.507-19.21,43.996-29.243c12.088-8.364,23.524-18.783,37.403-24.013
		c6.736-2.523,9.992-4.273,13.797-10.541c3.114-5.087,6.268-9.463,11.477-12.576C851.299,574.305,865.727,571.904,877.326,575.404z"
		/>
	<path fill="#280412" d="M832.455,576.503c-2.93,3.114-7.183,9.564-11.131,11.233c-2.768,1.18-5.983-0.611-9.137,0.895
		c-5.535,2.584-7.367,9.768-13.492,11.884c-3.073,1.058-6.39-0.712-9.279,1.18c-3.663,2.401-5.82,8.181-9.503,11.091
		c-5.779,4.579-12.271,8.384-17.867,13.227c-5.067,4.375-9.096,8.73-14.876,12.291c-9.32,5.718-19.312,23.097-31.196,22.568
		c-0.753-2.991,0.956-5.718,3.012-8.16c2.035-2.422,4.66-4.273,7.122-6.227c9.87-7.835,15.222-19.027,24.359-27.187
		c5.637-5.026,11.681-8.893,17.725-13.329c4.965-3.622,8.262-9.015,13.37-12.352c4.273-2.808,7.224-1.465,11.681-2.238
		c5.901-0.997,3.622-0.122,7.855-6.024C812.776,569.014,832.455,576.503,832.455,576.503z"/>
	<path fill="#280412" d="M775.292,372.109c15.751,2.198,20.696,20.513,20.452,34.106c-0.346,19.597-8.588,38.563-17.684,55.575
		c-3.928,7.367-11.152,25.112-21.184,27.533c-8.181,1.974-21.469-6.96-28.775-10.297c-10.765-4.925-21.327-10.338-31.196-16.911
		c-16.361-10.887-29.528-26.475-32.987-46.337c-3.175-18.132,7.468-31.949,26.658-28.062c11.701,2.361,23.077,10.094,32.254,18.62
		c5.474-6.247,11.294-12.251,17.46-17.704C749.509,380.453,762.065,370.237,775.292,372.109z M765.85,446.691
		c7.245-14.225,20.228-39.743,11.335-55.718c-11.64-20.879-46.601,47.212-60.113,34.534c-7.774-7.306-16.361-16.443-26.373-20.492
		c-5.901-2.381-11.762-3.663-11.294,4.172c0.387,6.878,3.907,14.001,7.59,19.678c7.672,11.844,19.475,19.475,31.807,25.783
		c2.686,1.384,32.254,16.443,32.702,16.443C756.835,463.337,761.576,455.075,765.85,446.691z"/>
	<path fill="#D36448" d="M777.185,390.973c8.893,15.975-4.09,41.493-11.335,55.718c-4.273,8.384-9.015,16.646-14.347,24.399
		c-0.448,0-30.016-15.059-32.702-16.443c-12.332-6.308-24.135-13.94-31.807-25.783c-3.683-5.678-7.204-12.8-7.59-19.678
		c-0.468-7.835,5.393-6.553,11.294-4.172c10.012,4.05,18.6,13.187,26.373,20.492C730.583,438.185,765.544,370.094,777.185,390.973z"
		/>
	<path fill="#280412" d="M703.152,533.605c7.306,5.332-0.875,36.711-5.291,42.572c-6.532,8.689-34.473-7.061-40.069-12.027
		c-3.276-2.91-5.922-6.817-6.512-11.152c-0.02-0.244-0.061-0.509-0.081-0.773c-0.285-3.643,1.363-7.774,4.823-8.995
		c1.852-0.651,3.887-0.387,5.8,0c5.963,1.221,11.721,3.48,16.911,6.634C680.971,534.969,686.75,521.619,703.152,533.605z"/>
	<path fill="#F2CAB1" d="M668.333,652.102c6.044,7.957,4.904,15.242,4.477,24.44c-0.407,1.18-0.814,2.34-1.221,3.439
		c-7.509,20.289-15.73,37.281-30.036,54.008c-13.492,15.751-30.952,32.845-39.519,52.808c1.587-10.338,2.727-20.696,3.032-31.054
		c14.062-18.864,26.841-38.95,34.167-61.497c3.785-11.66,5.881-24.766,2.3-36.731c-2.198-7.367-7.387-15.161-14.102-20.167
		C642.306,630.552,659.094,639.933,668.333,652.102z"/>
	<path fill="#F2CAB1" d="M653.397,834.986c-6.736,14.245-19.577,24.013-35.49,28.734c-8.872,2.625-18.396,3.744-27.574,2.177
		c-3.052-0.529-6.023-1.363-8.872-2.544c0.183-0.142,0.387-0.305,0.57-0.468c16.402-13.553,33.17-25.946,55.168-27.411
		C642.591,835.129,647.983,834.986,653.397,834.986z"/>
	<path fill="#280412" d="M640.291,461.791c10.623,16.728,1.974,40.679-8.73,55.006c-13.065,17.521-30.728,29.06-51.994,34.025
		c-10.114,2.361-15.283-0.59-23.809-6.227c-11.66-7.733-22.853-16.524-32.702-26.455c-14.367-14.469-34.493-40.191-26.679-62.311
		c10.541-29.833,57.916-5.8,76.8,14.794C591.553,454.078,625.985,439.304,640.291,461.791z M627.715,483.341
		c0.651-6.146-1.343-13.634-7.245-15.507c-2.869-0.916-6.003-0.244-8.893,0.631c-10.602,3.236-20.329,9.28-27.94,17.358
		c-2.116,2.238-4.111,4.66-6.695,6.329c-2.584,1.669-5.983,2.462-8.75,1.16c-4.925-2.3-7.285-10.175-11.131-14.021
		c-5.861-5.84-13.533-9.971-20.838-13.675c-5.311-2.686-11.498-5.433-17.521-5.901c-4.192-0.326-6.024-0.265-6.593,2.605
		c-3.378,17.419,17.969,37.79,29.202,47.965c10.765,9.768,23.667,19.678,36.548,26.597c5.271,2.829,28.815-17.949,32.458-21.652
		C618.741,506.703,626.453,495.551,627.715,483.341z"/>
	<path fill="#D36448" d="M620.471,467.835c5.901,1.872,7.896,9.361,7.245,15.507c-1.262,12.21-8.974,23.362-17.399,31.888
		c-3.643,3.704-27.187,24.481-32.458,21.652c-12.881-6.919-25.783-16.829-36.548-26.597c-11.233-10.175-32.58-30.545-29.202-47.965
		c0.57-2.869,2.401-2.93,6.593-2.605c6.024,0.468,12.21,3.215,17.521,5.901c7.306,3.704,14.977,7.835,20.838,13.675
		c3.846,3.846,6.207,11.721,11.131,14.021c2.768,1.302,6.166,0.509,8.75-1.16c2.584-1.669,4.579-4.09,6.695-6.329
		c7.611-8.079,17.338-14.123,27.94-17.358C614.467,467.591,617.601,466.919,620.471,467.835z"/>
	<path fill="#08736D" d="M589.274,879.573l-0.753,4.965c-7.183-1.058-14.306-2.177-21.245-2.707
		c-1.058-0.895-250.547,2.646-373.562,2.646c-43.386,0-86.792,0-130.178,0c0.265-5.352,0.57-10.704,0.651-16.076
		c5.291-0.183,505.998,4.619,505.998,4.619s11.335,4.965,15.547,5.881C586.914,879.145,588.094,879.369,589.274,879.573z"/>
	<path fill="#F2CAB1" d="M581.765,717.201c3.907,14.937,6.085,30.26,5.433,45.706c-0.387,9.605-2.035,19.047-2.605,28.51
		c-6.838-5.963-14.591-11.07-22.548-15.69c0.142-27.35-4.945-55.758-13.756-81.521c-5.515-16.158-12.617-31.318-22.975-44.159
		c3.154,1.18,6.186,2.544,8.893,3.887C560.398,666.897,574.46,689.383,581.765,717.201z"/>
	<path fill="#280412" d="M560.276,328.52c0.57,25.071-22.629,40.74-39.662,55.006c-9.503,7.977-19.841,11.274-29.243,0.326
		c-10.582-12.312-13.899-31.624-15.283-47.293c-1.445-16.137,0.081-38.237,20.798-39.397c11.986-0.651,19.739,8.608,24.094,18.946
		c6.329-3.032,13.085-5.454,19.739-6.329C552.441,308.211,560.011,317.124,560.276,328.52z M514.611,367.184
		c5.148-4.68,36.609-32.743,31.644-41.554c-1.852-3.256-8.893,0.916-11.315,1.913c-5.087,2.116-9.931,4.904-14.632,7.774
		c-4.416,2.686-10.989,0.224-12.169-4.965c-1.079-4.64-2.686-9.931-5.759-13.634c-7.082-8.628-9.89,3.256-10.094,9.178
		c-0.468,13.411,2.157,28.123,7.448,40.476c1.017,2.361,4.09,5.494,4.599,7.794c0.224,0.977,1.058,1.18,1.302,1.384
		C508.872,373.31,512.087,369.484,514.611,367.184z"/>
	<path fill="#D36448" d="M546.255,325.63c4.965,8.811-26.495,36.874-31.644,41.554c-2.523,2.3-5.739,6.125-8.974,8.364
		c-0.244-0.203-1.079-0.407-1.302-1.384c-0.509-2.3-3.582-5.433-4.599-7.794c-5.291-12.352-7.916-27.065-7.448-40.476
		c0.204-5.922,3.012-17.806,10.094-9.178c3.073,3.704,4.68,8.995,5.759,13.634c1.18,5.189,7.753,7.652,12.169,4.965
		c4.701-2.869,9.544-5.657,14.632-7.774C537.362,326.546,544.403,322.374,546.255,325.63z"/>
	<path fill="#280412" d="M536.772,816.224c5.148,3.175,2.808,10.745-2.991,11.05c-9.463,0.509-19.902-3.643-28.856-6.349
		c-9.341-2.849-18.6-5.942-27.879-8.934c-9.849-3.154-19.678-6.349-29.568-9.3c-8.486-2.544-18.05-4.477-25.681-9.096
		c-3.114-1.893-2.991-7.774,1.119-8.445c18.071-2.951,39.458,6.125,56.41,11.64c10.439,3.398,20.859,6.797,31.298,10.195
		C519.149,809.732,529.141,811.543,536.772,816.224z"/>
	<g>
		<path fill="#FAF6ED" d="M1059.599,692.436c-13.411,4.335-26.516,9.3-40.171,12.963c-17.949,4.823-38.42,11.925-57.081,11.823
			c-5.026-0.02-6.166-6.288-2.422-8.913c14.408-10.134,34.819-13.573,51.526-18.335c14.754-4.192,29.507-8.506,43.772-14.164
			c-4.314-3.398-8.811-6.614-13.085-10.053c-27.777,10.195-55.412,22.934-84.207,28.449c-5.922,1.14-9.585-6.573-4.172-9.87
			c14.774-9.015,31.685-16.015,47.781-22.324c12.963-5.067,25.987-9.829,39.194-14.184c-3.236-2.279-7.122-4.131-9.727-5.393
			c-4.64-2.279-9.748-3.114-14.57-5.108c-5.352-2.198-10.786-4.151-16.239-6.024c-19.312-6.553-38.644-11.762-58.282-16.972
			c-32.091,17.358-143.018,84.248-168.578,101.607c-14.408,9.788-79.324,54.639-96.418,63.532c-6.776,3.521-9.585,2.849-3.724-5.311
			c5.84-8.16,184.024-134.329,232.191-158.281c15.507-7.713,31.074-15.283,46.398-23.362c6.593-3.48,13.736-7.102,19.841-11.721
			c-2.727-3.399-4.986-7.469-6.858-11.579c-33.394,13.288-65.445,30.24-97.008,47.395
			c-63.451,34.432-251.28,186.343-264.568,198.716c1.282,2.747,2.401,5.616,3.297,8.649c13.878-5.678,28.693-7.611,43.732-7.916
			c21.225-21.123,47.578-38.604,72.14-55.189c27.126-18.315,55.27-35.165,84.146-50.549c28.978-15.445,58.791-29.182,89.132-41.656
			c29.894-12.271,60.968-25.478,92.938-30.932c6.247-1.079,11.355,7.997,4.66,11.07c-29.12,13.39-60.276,22.263-90.028,34.228
			c-30.24,12.149-59.869,25.824-88.827,40.761c-28.571,14.733-56.41,30.911-83.292,48.555
			c-20.879,13.736-40.415,29.467-60.683,44.057c4.782,0.203,9.544,0.488,14.265,0.753c15.303-2.605,36.019-5.332,50.569-10.338
			c41.188-14.184,81.847-24.888,123.808-36.508c42.572-11.803,80.361-27.676,122.933-39.519
			c29.202-8.14,59.096-14.835,88.115-22.934C1068.92,706.66,1059.599,692.741,1059.599,692.436z M921.037,725.748
			c-13.98,9.402-34.126,13.004-50.101,17.847c-17.542,5.311-35.063,10.765-52.38,16.727c-18.071,6.227-36.223,12.21-54.11,18.905
			c-16.015,6.003-31.033,15.975-47.985,19.17c-1.465,0.285-3.134,0.448-4.314-0.468c-5.555-4.416,17.114-15.71,19.556-17.216
			c8.079-4.986,16.483-9.442,25.03-13.553c17.074-8.181,34.819-14.896,52.625-21.306c18.824-6.776,37.891-12.861,57.102-18.478
			c15.974-4.68,35.103-12.129,51.932-11.376C923.703,716.245,925.331,722.838,921.037,725.748z"/>
		<path fill="#FAF6ED" d="M669.025,737.755c37.525-30.138,94.22-75.844,112.575-87.402c31.135-19.638,62.942-38.197,95.441-55.494
			c14.896-7.936,29.914-15.629,44.79-23.586c5.698-3.073,11.559-6.308,17.562-9.259c-3.785-0.651-7.59-1.18-11.416-1.628
			c-13.879-1.648-27.9-2.361-41.88-2.544c-14.428-0.183-48.331,1.73-51.017,2.055l-20.126,1.587c0,0-15.181,10.765-22.466,15.812
			c-13.472,9.32-25.763,20.899-38.4,31.339c-21.306,17.562-48.005,41.412-60.866,57.855c-24.196,71.265-54.314,75.416-55.962,95.481
			C649.387,760.384,660.214,744.837,669.025,737.755z M840.88,580.491c10.419-6.186,24.847-8.588,36.446-5.087
			c5.108,1.547,5.067,8.771,0,10.338c-13.003,4.009-27.574,1.587-35.795,14.408c-2.584,4.029-4.925,8.445-9.015,11.172
			c-3.948,2.645-9.035,3.378-13.369,5.128c-28.775,11.498-53.276,33.394-79.934,49.002c-5.535,3.236-10.48-5.311-5.006-8.588
			c15.12-9.056,29.507-19.21,43.996-29.243c12.088-8.364,23.524-18.783,37.403-24.013c6.736-2.523,9.992-4.273,13.797-10.541
			C832.516,587.98,835.67,583.605,840.88,580.491z M718.984,652.713c2.035-2.422,4.66-4.273,7.122-6.227
			c9.87-7.835,15.222-19.027,24.359-27.187c5.637-5.026,11.681-8.893,17.725-13.329c4.965-3.622,8.262-9.015,13.37-12.352
			c4.273-2.808,7.224-1.465,11.681-2.239c5.902-0.997,3.622-0.122,7.855-6.023c11.681-16.341,31.359-8.852,31.359-8.852
			c-2.93,3.114-7.184,9.564-11.132,11.233c-2.767,1.18-5.983-0.61-9.137,0.895c-5.535,2.584-7.366,9.768-13.492,11.884
			c-3.073,1.058-6.39-0.712-9.28,1.18c-3.663,2.401-5.82,8.181-9.503,11.091c-5.78,4.579-12.271,8.384-17.867,13.227
			c-5.067,4.375-9.096,8.73-14.876,12.291c-9.32,5.718-19.312,23.097-31.196,22.568
			C715.219,657.882,716.929,655.155,718.984,652.713z"/>
		<path fill="#FAF6ED" d="M580.3,667.65c3.602-5.861,8.14-11.274,11.64-15.588c6.532-8.079,14.286-17.236,23.443-23.301
			c-11.07,0.163-22.283,1.526-32.193,4.558c-8.16,2.483-14.815,9.544-19.78,16.992C569.922,655.216,575.518,661.097,580.3,667.65z"
			/>
		<path fill="#FAF6ED" d="M570.41,795.976c-11.721-8.16-24.989-13.736-37.505-20.513c-19.902-10.785-39.763-21.652-59.808-32.193
			c-40.008-21.042-80.809-40.883-123.503-55.881c-30.056-10.541-60.988-18.824-92.531-23.341c-8.506-1.221-17.053-2.116-25.6-2.747
			c-7.468-0.549-12.556,0.956-18.519,5.454c-4.762,3.582-8.038,8.364-10.887,13.431c57.02-0.529,112.84,11.254,166.624,30.159
			c28.469,10.012,56.532,21.734,83.658,35.002c13.085,6.39,25.844,13.329,38.481,20.574c3.52,2.015,45.869,23.158,62.983,32.723
			c11.274,6.288,22.364,13.044,32.743,20.757c3.276,2.442,6.41,5.433,9.829,7.468C595.766,815.023,579.323,802.203,570.41,795.976z"
			/>
		<path fill="#FAF6ED" d="M328.389,751.287c-64.224-3.785-128.143,1.811-192.285,1.323c-2.747,12.82-6.756,25.559-10.277,38.339
			c25.661-0.997,51.221-3.134,76.881-4.538c14.51-0.773,29.08-1.302,43.61-0.285c11.742,0.814,26.17,1.282,35.673,8.872
			c3.378,2.707,1.18,8.12-2.422,9.178c-12.251,3.643-28.062-0.509-40.801-0.834c-13.94-0.346-27.839-0.102-41.778,0.509
			c-24.847,1.119-49.796,2.951-74.562,0.366c-1.445,6.186-2.625,12.393-3.378,18.64c24.704,0.122,49.389,0.224,74.073,0.326
			c33.516,0.142,67.704-1.14,101.098,1.608c8.14,0.672,8.12,11.986,0,12.658c-33.374,2.747-67.582,1.465-101.098,1.608
			c-31.4,0.122-62.82,0.265-94.22,0.407c-0.916,4.64-1.811,9.28-2.727,13.919c26.597-0.183,272.891,0.427,326.757,1.201
			c34.452,0.509,68.904,2.015,103.357,2.869c10.073,0.244,22.873,2.727,32.804,0.794c0.061-0.285,0.285-0.712,0.61-1.16
			c-23.199-9.422-49.409-9.137-74.216-10.541c-14.143-0.794-28.327-1.262-42.45-2.462c-11.599-0.997-24.318-1.831-35.063-6.614
			c-3.032-1.343-2.3-6.715,0.936-7.245c13.004-2.076,26.862-0.977,39.967-0.59c15.242,0.427,30.525,0.855,45.746,1.648
			c25.743,1.343,54.456,1.73,76.515,16.117c0.305-0.244,0.631-0.488,0.936-0.733c4.05-3.337,8.16-6.654,12.393-9.809
			c-16.504-12.902-34.798-23.545-53.398-33.068C468.457,771.8,398.393,755.398,328.389,751.287z M398.027,788.69
			c-16.138,0.427-20.553-3.073-36.508-5.291c-16.85-2.32-33.781-4.131-50.732-5.657c-33.191-2.991-67.093-1.709-100.081-6.085
			c-6.431-0.855-6.431-9.178,0-10.012c33.883-4.396,70.065-0.712,103.988,2.015c31.787,2.544,55.82,4.68,85.347,17.643
			C403.847,782.972,401.628,788.589,398.027,788.69z M533.78,827.274c-9.463,0.509-19.902-3.643-28.856-6.349
			c-9.34-2.849-18.6-5.942-27.879-8.934c-9.849-3.154-19.678-6.349-29.568-9.3c-8.486-2.544-18.05-4.477-25.681-9.096
			c-3.114-1.893-2.992-7.773,1.119-8.445c18.071-2.951,39.458,6.125,56.41,11.64c10.439,3.398,20.859,6.797,31.298,10.195
			c8.526,2.747,18.519,4.558,26.15,9.239C541.92,819.398,539.58,826.968,533.78,827.274z"/>
		<path fill="#FAF6ED" d="M481.013,731.792c1.791,0.956,3.582,1.913,5.373,2.89c-1.079-2.401-2.116-4.782-3.093-7.021
			c-6.186-14.102-10.969-28.815-12.739-44.139c-1.587-13.777,0.549-29.304,8.364-40.293c-2.768-0.163-5.535-0.285-8.303-0.326
			c-5.596-0.041-12.23-0.326-17.338,2.3c-6.695,3.439-10.256,11.599-11.986,18.518C433.883,693.27,458.812,716.611,481.013,731.792z
			"/>
	</g>
	<path fill="#280412" d="M426.984,551.432c0.509,13.329-3.948,26.129-9.3,38.136c-3.175,7.102-6.939,19.292-15.344,21.55
		c-11.05,2.991-25.6-3.215-35.022-8.445c-14.998-8.364-40.109-31.217-34.391-51.139c4.742-16.585,22.629-11.742,36.447-6.003
		c3.337-10.928,10.663-20.859,21.143-25.519C410.359,511.18,426.313,533.585,426.984,551.432z M399.614,588.265
		c6.817-13.472,12.434-28.49,10.073-43.406c-0.61-3.866-2.157-8.12-5.759-9.625c-2.727-1.14-5.963-0.326-8.384,1.343
		c-6.756,4.64-10.46,13.573-10.684,21.51c-0.203,7.082-1.608,9.137-7.611,6.37c-6.227-2.869-21.489-13.187-26.801-4.457
		c-5.311,8.73,34.859,40.354,45.685,32.946C397.762,591.847,398.739,590.035,399.614,588.265z"/>
	<path fill="#D36448" d="M409.687,544.859c2.361,14.916-3.256,29.935-10.073,43.406c-0.875,1.77-1.852,3.582-3.48,4.68
		c-10.826,7.407-50.997-24.216-45.685-32.946c5.311-8.73,20.574,1.587,26.801,4.457c6.003,2.768,7.407,0.712,7.611-6.37
		c0.224-7.936,3.928-16.87,10.684-21.51c2.422-1.669,5.657-2.483,8.384-1.343C407.53,536.739,409.077,540.992,409.687,544.859z"/>
	<path fill="#280412" d="M400.041,781.303c3.805,1.669,1.587,7.285-2.015,7.387c-16.137,0.427-20.553-3.073-36.508-5.291
		c-16.85-2.32-33.781-4.131-50.732-5.657c-33.191-2.991-67.093-1.709-100.08-6.085c-6.431-0.855-6.431-9.178,0-10.012
		c33.882-4.396,70.064-0.712,103.988,2.015C346.48,766.204,370.514,768.341,400.041,781.303z"/>
	<path fill="#280412" d="M388.951,416.044c2.442,7.265-2.605,20.696-4.497,27.757c-2.279,8.506-1.628,17.928-11.131,15.69
		c-13.757-3.215-27.716-18.457-28.001-32.641c-0.326-15.161,19.088,0.102,23.728,4.05c1.994-3.582,1.791-8.343,2.991-12.413
		C374.441,410.163,385.45,405.625,388.951,416.044z"/>
</g>
</svg>
